PathFileType	4	(X/Y/Z)	Patient4_TMGait_0pt5_01_right_19.trc.trc
DataRate	CameraRate	NumFrames	NumMarkers	Units	OrigDataRate	OrigDataStartFrame	OrigNumFrames
71.794871794872	71.794871794872	4	33	mm	71.794871794872	36	       141
Frame#	Time	L.ASIS			Sacral			L.Shoulder			Chest			R.Shoulder			Neck			R.ASIS			R.Thigh.Superior			R.Thigh.Lateral			R.Thigh.Inferior			R.Patella			L.Thigh.Superior			L.Thigh.Lateral			L.Thigh.Inferior			L.Patella			L.Shank.Superior			L.Shank.Lateral			L.Shank.Inferior			R.Shank.Superior			R.Shank.Lateral			R.Shank.Inferior			R.Heel			R.Midfoot.Superior			R.Midfoot.Lateral			R.Toe			L.Heel			L.Midfoot.Lateral			L.Midfoot.Superior			L.Toe			L.Elbow			L.Wrist			R.Elbow			R.Wrist			
		X1	Y1	Z1	X2	Y2	Z2	X3	Y3	Z3	X4	Y4	Z4	X5	Y5	Z5	X6	Y6	Z6	X7	Y7	Z7	X8	Y8	Z8	X9	Y9	Z9	X10	Y10	Z10	X11	Y11	Z11	X12	Y12	Z12	X13	Y13	Z13	X14	Y14	Z14	X15	Y15	Z15	X16	Y16	Z16	X17	Y17	Z17	X18	Y18	Z18	X19	Y19	Z19	X20	Y20	Z20	X21	Y21	Z21	X22	Y22	Z22	X23	Y23	Z23	X24	Y24	Z24	X25	Y25	Z25	X26	Y26	Z26	X27	Y27	Z27	X28	Y28	Z28	X29	Y29	Z29	X30	Y30	Z30	X31	Y31	Z31	X32	Y32	Z32	X33	Y33	Z33	

36	25.227500000000	878.923782097120	956.462623860443	340.202395814338	662.508652806789	997.017186628080	493.675669195784	820.981051544236	1429.794075704909	310.565225444338	921.992941793487	1365.299903397926	475.395115507401	829.540444048095	1435.043428437848	647.228961949041	815.599413043776	1492.772627618803	461.170340656223	890.351826991537	941.806584779993	615.212436258353	952.453949973033	750.106064605934	581.564161955441	883.233318688754	633.504903693888	640.442770374066	965.222522455133	589.431999679297	559.366230442805	975.102196325636	499.781105175940	564.329581328194	901.991730928470	732.045251843474	361.416588131168	799.071697099065	627.522756498331	298.311841394850	875.905759588429	535.798897258690	353.817932496926	862.610357027554	453.267423676521	352.257708973084	798.774361532978	395.927946495275	347.635351669697	662.761280672948	339.816841945431	299.597340509456	659.853252344883	212.090392295778	360.221514276924	952.549786622052	409.651642693321	571.849360331007	888.236737639076	301.299929966828	631.508271011398	936.952134308133	209.600224622686	569.832654644165	811.905349550104	42.604764668950	537.094994055993	981.610996716602	98.326809008092	576.230540190201	893.728165158068	36.322953850093	613.419017947685	1101.527043134729	47.336526804087	607.191988329648	476.617991670767	121.858894721397	399.844509252149	542.210459268184	80.459232736134	325.260893339721	642.018394367632	110.642128146545	345.663771556723	739.220959503814	33.496992768020	331.712789278187	819.665416711641	1075.022348264170	190.062636761086	1003.555313731338	890.285313055636	170.515165959599	749.082547272528	1096.042288535736	756.653864127211	803.444222576000	840.230890553195	756.289854968872	
37	25.241428571429	878.567304684020	957.353059302171	343.073143269392	663.283073519570	997.670017648818	498.071026379523	819.721527900037	1430.683431775400	314.195752992326	922.470030919877	1366.111333738596	477.943966314038	831.716215734463	1435.612129744091	650.700506946191	815.677037597482	1493.502587019662	464.963377937217	891.970637599032	942.324921337984	617.855545324985	951.907917076614	749.196674280660	584.910499276894	881.086525837868	633.490271249877	643.169678029913	962.631386821775	588.656507792281	562.134222283657	971.386925922976	499.025083678264	566.713033873204	907.399134758213	734.508984681416	363.334332393650	808.558830296666	627.507232287977	299.522077927048	888.719062589181	537.283202596057	354.233467226485	876.538268869624	453.387843072789	351.644831455510	810.351774598349	396.351599833440	347.349329680182	672.095034307246	345.811935580629	299.492152551036	664.637211122588	218.029777966931	359.246614094657	948.235421249964	409.048462790921	573.833251729479	883.147115039399	300.914083798214	632.902074368924	931.119790693820	209.139917072534	570.739454571581	805.082446276244	42.621924641819	537.224263949414	974.848062408883	98.280678853969	576.515748530743	886.860098393548	36.323866404225	613.636774250278	1094.744319059453	47.018294560996	607.399063762500	477.817406459072	138.115204311295	398.398981428386	540.681130703142	91.803732730430	324.281433252393	642.164886275802	115.573609397116	344.423819023988	732.974121595937	32.456087092391	331.572428681197	815.775481348927	1075.349780863923	195.418779533012	988.808941397456	880.210876978659	175.862545061783	759.271313826285	1094.583607855709	761.445233290470	827.455857295996	842.142879665683	759.783711050460	
38	25.255357142857	877.927846049361	958.071239150524	345.768177648794	663.795819000987	998.246795370044	502.366405515043	818.278755024629	1431.421103648744	317.745297250268	922.853731712205	1366.721872310517	480.319568212524	833.967412113727	1436.010439818796	654.083374168098	815.711104660600	1494.087475198845	468.671450010767	893.359872420234	942.686803949592	620.330168826691	951.075770816709	748.234661932394	588.149455544357	878.688089262326	633.425084243239	645.855251292891	959.766347593237	587.830635788834	564.867771976451	967.367193418354	498.267104810646	569.116019567791	912.739237873501	737.228677869532	365.263834332438	818.338813401910	627.778664842141	300.590534210655	901.659668060374	539.296265273074	354.794459205894	890.745674200471	454.108509450221	351.334141440631	822.477495614834	397.237099394997	347.218702553793	682.289973368840	352.128930460396	299.387888589794	670.316334749380	224.511089458273	358.473465811074	943.687838381516	408.430647665239	575.835752350855	877.877231731546	300.487485265138	634.310444589605	925.199657382337	208.675800717793	571.693116543260	798.215108027547	42.640782274931	537.369472642714	968.065384723689	98.183200109643	576.829429661016	879.953704488095	36.306142782309	613.887624310930	1087.930203815956	46.602180682840	607.625978065337	480.402970484867	154.951461727904	397.112732535978	540.386290829240	104.116950781863	323.343359004842	643.262555867174	121.360676072046	343.373340021161	727.525370145192	31.563112059490	331.259200851355	811.758380162632	1075.538364074227	200.760359384806	973.204723642874	870.585806340196	181.266095599443	769.814747044941	1093.228325099025	766.273348205027	852.021338396709	845.023438342352	763.221293582737	
39	25.269285714286	877.006687129259	958.649431074043	348.260750053092	664.041094103496	998.773412098006	506.529892105940	816.688756142158	1432.049846020065	321.192739991472	923.134114039640	1367.162562299032	482.517631430231	836.250196769710	1436.267678908511	657.353291478420	815.726350184542	1494.562510240553	472.264052895940	894.509092201526	942.943329911766	622.623600355850	949.985366541241	747.286209822528	591.204066368419	876.092177609306	633.341009888971	648.435895915316	956.676719241476	586.996427034297	567.495943331421	963.098686362010	497.535578872268	571.453382078079	917.875423986953	740.246299823799	367.240397930174	828.186840066770	628.443335628833	301.555894046826	914.462477220554	541.917747522235	355.515096434576	904.991141912609	455.512907396575	351.308050638782	834.931227174428	398.654307233062	347.243405213527	693.118410844494	358.655486582633	299.346949776984	676.846375740897	231.355532640621	357.941635080095	938.950784633179	407.828771904091	577.789652383258	872.463791358166	300.062406314381	635.691653877772	919.213612983255	208.232262082134	572.659264737444	791.305376637098	42.668567833570	537.533212686341	961.265533835202	98.047953447693	577.162236418946	873.014505085296	36.282130454177	614.167339758223	1081.084332825444	46.117379227530	607.864333610358	484.399518459133	171.695565981154	396.114567742855	541.492996842028	116.914798982315	322.526204703598	645.458285996274	127.839288800176	342.537395052000	723.312903325628	30.962592917645	330.729962141875	807.510546187802	1075.621111923121	206.084571215240	956.798156072956	861.596792924082	186.716775812306	780.766326201987	1091.993176665856	771.058936109626	876.988490977945	848.905791728544	766.489896777106	
